<?xml version="1.0" encoding="utf-8"?><svg version="1.1" id="Layer_1" xmlns="http://www.w3.org/2000/svg" xmlns:xlink="http://www.w3.org/1999/xlink" x="0px" y="0px" viewBox="0 0 170.9 60.6" style="enable-background:new 0 0 170.9 60.6;" xml:space="preserve"><style type="text/css">.st0{fill:#FFFFFF;}</style><g><path class="st0" d="M83.2,56.7h-4V42.9h4c3.1,0,4.6,1.4,4.6,3.6c0,1.4-0.8,2.4-2,2.9c1.5,0.5,2.6,1.5,2.6,3.3C88.4,55.4,86.5,56.7,83.2,56.7z M83.1,44.9h-1.3v3.7H83c1.6,0,2.4-0.7,2.4-1.9C85.4,45.6,84.7,44.9,83.1,44.9z M83.2,50.4h-1.4v4.2h1.4c1.7,0,2.7-0.7,2.7-2.1C85.9,51.2,84.9,50.4,83.2,50.4z"/><path class="st0" d="M90.6,56.7V42.9h8v2.2h-5.4v3.3h4.2l0.4,2.2h-4.5v3.8h5.6v2.2H90.6z"/><path class="st0" d="M110,56.7l-6.5-9.5v9.5H101V42.9h2.5l6.2,9v-9h2.5v13.8H110z"/><path class="st0" d="M115.1,56.7V42.9h8v2.2h-5.4v3.3h4.2l0.4,2.2h-4.5v3.8h5.6v2.2H115.1z"/><path class="st0" d="M128.1,45.2v3.5h3.9l0.4,2.3h-4.3v5.7h-2.6V42.9h7.7v2.3H128.1z"/><path class="st0" d="M135.4,56.7V42.9h2.7v13.8H135.4z"/><path class="st0" d="M146.9,45.2v11.5h-2.6V45.2h-4.2v-2.3h10.7l0.4,2.3H146.9z"/><path class="st0" d="M156.6,56.8c-1.7,0-3.1-0.4-4.3-1l0.4-2.4c1.2,0.7,2.6,1.2,4,1.2c1.2,0,2.1-0.6,2.1-1.7c0-1-0.5-1.4-2.5-2.3c-2.7-1.1-3.8-2-3.8-4.1c0-2.4,1.9-3.9,4.5-3.9c1.6,0,2.6,0.3,3.6,0.8l-0.4,2.4c-1-0.7-2.2-1.1-3.3-1.1c-1.3,0-1.9,0.6-1.9,1.5c0,0.9,0.4,1.3,2.4,2.1c2.8,1.2,3.9,2.1,3.9,4.3C161.3,55.4,159.3,56.8,156.6,56.8z"/></g><g><g><g><path class="st0" d="M167,33.7c-1.1,0-1.9-0.8-1.9-1.9c0-1.1,0.8-1.9,1.9-1.9c1.1,0,1.9,0.8,1.9,1.9C168.9,32.9,168.1,33.7,167,33.7z M167,30.1c-0.9,0-1.6,0.6-1.6,1.7c0,1.1,0.7,1.7,1.6,1.7c0.9,0,1.6-0.6,1.6-1.7C168.6,30.7,167.9,30.1,167,30.1z M167.5,32.8l-0.6-0.9h-0.2v0.9h-0.4v-2.1h0.6c0.4,0,0.7,0.2,0.7,0.6c0,0.3-0.2,0.5-0.4,0.6l0.6,0.9L167.5,32.8z M167,31h-0.3v0.6h0.3c0.2,0,0.4-0.1,0.4-0.3C167.3,31.1,167.2,31,167,31z"/><g><path class="st0" d="M67.1,10.3L52.6,33.7h4.9c0,0,3.6-5.8,3.7-6h8.3l0,6h4.7V10.3H67.1z M69.6,23.5h-5.7c0.4-0.6,5.7-9.3,5.7-9.3V23.5z"/><rect x="77.6" y="10.3" class="st0" width="4.6" height="23.4"/><rect x="85.5" y="10.3" class="st0" width="4.6" height="23.4"/><path class="st0" d="M100.1,22.7c-2.5-0.7-3-1-2.9-2.1c0.1-0.9,0.8-1.5,2.1-1.5c1.6,0,3.5,0.6,5.2,1.5l0.3,0.2l0.6-3.9l-0.1-0.1c-1.7-0.8-3.7-1.2-5.9-1.2c-2.1,0-3.9,0.7-5,1.8c-0.9,0.9-1.4,2.1-1.3,3.5c0.1,3.6,1.8,4.6,5.9,5.7c2.7,0.7,3.2,1.1,3.2,2.3c0,1.2-0.7,1.6-2.5,1.6c-1.9,0-4.1-0.7-5.9-1.9l-0.3-0.2l-0.6,3.9l0.1,0.1c1.5,0.8,3.9,1.6,6.6,1.6c2.5,0,4.4-0.6,5.6-1.8c0.9-0.9,1.4-2.2,1.3-3.7C106.2,24.7,104.2,23.7,100.1,22.7z"/><path class="st0" d="M117.3,29.8l-0.2,0.1c-0.3,0.1-0.7,0.1-1.3,0.1c-1.3,0-2-0.6-2-1.9c0,0,0-7.9,0-8.3c0.4,0,3.3,0,3.3,0l0.1-3.8c0,0-3,0-3.4,0c0-0.4,0-5.6,0-5.6h-4.5c0,0,0,5.2,0,5.6c-0.4,0-2.3,0-2.3,0v3.8c0,0,2,0,2.3,0c0,0.4,0,9,0,9c0,3.6,1.9,5.3,5.7,5.3c1.2,0,2-0.1,2.7-0.3l0.2,0L117.3,29.8z"/><path class="st0" d="M127,15.6c-2.8,0-5,0.7-6.7,1.4l-0.2,0.1l0.6,3.8l0.3-0.1c2-0.9,3.8-1.3,5.5-1.3c1.8,0,2.6,0.8,2.6,2.3c0,0,0,0.3,0,0.4c-6.7,0.7-10,3-10,7c0,3,1.9,4.9,4.9,4.9c2.1,0,3.8-0.8,5.4-2.3c0.1,0.5,0.3,2,0.3,2h3.9V21.6C133.7,17.5,131.5,15.6,127,15.6z M125.4,30.5c-1.1,0-1.8-0.7-1.8-1.8c0-2,1.9-3.2,5.5-3.7v3.8C128,29.9,126.7,30.5,125.4,30.5z"/><path class="st0" d="M145.3,29.8l-0.2,0.1c-0.3,0.1-0.7,0.1-1.2,0.1c-1.4,0-2-0.6-2-1.9c0,0,0-7.9,0-8.3c0.4,0,3.4,0,3.4,0l0.1-3.8c0,0-3,0-3.4,0c0-0.4,0-5.6,0-5.6h-4.5c0,0,0,5.2,0,5.6c-0.3,0-2.3,0-2.3,0v3.8c0,0,2,0,2.3,0c0,0.4,0,9,0,9c0,3.6,1.9,5.3,5.7,5.3c1.2,0,2-0.1,2.7-0.3l0.2,0L145.3,29.8z"/><path class="st0" d="M161,28.4c-2,1.4-3.7,2-5.6,2c-2.4,0-4-1.7-4.2-4.5c0.5,0,10.6,0,10.6,0l0-1.2c0-6-2.5-9.1-7.4-9.1c-2.2,0-3.9,0.7-5.3,2c-1.6,1.6-2.5,4.1-2.5,7.3c0,5.7,3.2,9.2,8.3,9.2c2.5,0,4.8-0.7,6.8-2.1l0.1-0.1l-0.6-3.7L161,28.4z M151.2,22.9c0.2-2.5,1.3-4,3.1-4c2.4,0,3,2.1,3.1,4H151.2z"/></g></g></g><g><g><g><path class="st0" d="M25.9,2.1c-13.3,0-24,8.2-24,18.3c0,10.1,10.8,18.9,24,18.9c13.3,0,24-8.8,24-18.9C49.9,10.3,39.1,2.1,25.9,2.1z M25.9,38.1c-11.5,0-20.8-8.2-20.8-17.6c0-9.4,9.3-17,20.8-17c11.5,0,20.8,7.6,20.8,17C46.7,29.8,37.4,38.1,25.9,38.1z"/></g></g><g><g><g><g><g><defs><path id="SVGID_1_" d="M21.3,28.3l0.4,0.4c0,0,0.8,0.5,0.8,0.5l0.8,0.4l0.1,0.1L24,30l1,0.5c0.1,0,0.2,0,0.2,0l1.3-0.1c0.7,0,1.6,0,2.1,0.3c0.6,0.3,0.4,0.9,0.4,0.9s0.6-0.5,0.5-1c-0.1-0.5-0.6-1.1-2.5-1.2c-0.6,0-1.4,0-1.4,0s-0.1,0-0.1,0c0,0-0.8-0.5-0.8-0.5l-0.3-0.2c0,0-1.1-0.6-1.1-0.6s-0.7-0.3-0.7-0.3l0,0c0,0-0.6-0.9-0.6-0.9l-0.2-0.3c0,0-0.7-1-0.7-1l-0.3-0.4c0,0-0.4-0.6-0.4-0.6c0,0,0.4-0.5,0.3-1.1c0,0.1-0.1,0.1-0.3,0.3c-0.3,0.2-1,0.6-1.5,0.7l-0.2,0.1l1.8,2.4L21.3,28.3z M24.3,26.9l0.1,0.2c0.1,0,0.8,0.4,0.8,0.4c0.5,0.2,1.2,0.5,1.6,0.7l0.9,0.5c0.1,0,1,0,1.6,0c0.7,0.1,1.3,0.3,1.6,0.8c0.4,0.6-0.1,1.2-0.1,1.2l0,0c0.1-0.1,1-0.6,0.9-1.4c-0.1-0.8-0.8-1.6-3.4-1.6c0,0-0.7-0.4-0.7-0.4l-0.2-0.1l-1.2-0.6c0,0-0.9-0.3-1-0.3v0c0,0-0.2-0.4-0.2-0.4c-0.3-0.6-0.7-1.1-1.1-1.6L23.8,24c0,0-0.6-0.9-0.7-1c0.2-0.4,0-1.1,0-1.1s-0.1,0.2-0.3,0.4c-0.2,0.2-0.7,0.6-1,0.8l-0.2,0.1l2.4,3.3L24.3,26.9z M25.4,21.1c0.1-0.5-0.1-1-0.1-1l-0.1,0.3c-0.1,0.3-0.4,0.6-0.9,0.9L24,21.4l1.9,2.8c0,0,0.1,0.2,0.1,0.2l0.4,0.5c0,0,0.8,0.5,0.8,0.5l0.3,0.2l0.9,0.5l0.8,0.5l0.1,0l1.2,0.1c0.7,0.1,1.1,0.3,1.3,0.5c0.7,0.5,0.3,1.4,0.3,1.4s1-0.9,0.3-2c-0.2-0.4-0.6-0.7-1.6-0.8c0,0-1.2-0.2-1.2-0.2l0,0c0,0-0.7-0.5-0.7-0.5l-0.9-0.5l-0.2-0.1L27.2,24L25.4,21.1z M17.4,4.7C17.4,4.8,17.6,5,17.6,5l1,0.9c0,0,0.6,0.5,0.6,0.5c0.4,0.4,0.5,0.6,0.5,0.7c0,0.1-0.1,0.1-0.2,0.2c-0.1,0-0.2,0.1-0.2,0.1l0,0.4l0.2,0c1.3,0,2.5,0.8,3.3,1.6c1.4,1.3,2.4,3.4,2.6,5.3l1.1,5.5l0.4,0.8l0.1,0.2l0.2,0.4c0.1,0.4,0.4,0.7,0.4,0.7c0,0,0.5,0.4,0.5,0.4l0.8,0.8l0.2,0.2l0.4,0.4c0,0,1.1,0.2,1.1,0.2c1.9,0.3,1.8,1.4,1.8,1.4s1.1-1.7-1.5-2.3c0,0-0.8-0.2-0.9-0.2c0,0,0,0,0,0c0,0-0.3-0.4-0.3-0.4c0,0-0.1-0.1-0.1-0.1c0,0-0.8-0.8-0.8-0.8l-0.4-0.3c0,0-0.3-0.9-0.3-0.9l-0.5-1.1c-0.1-0.4-0.2-0.9-0.3-1.7c0,0-0.1-0.6-0.1-0.6l-0.3-2.3c0,0,0.1-0.5,0.1-0.5c0.2-0.9,0.5-1.8,1-2.9c0.6-1.2,1.8-2,1.8-2.1c0.9-0.6,2.2-0.9,2.9-1c0.3,0,0.4-0.2,0.4-0.3l0-0.1l-0.1,0C32.5,7.8,32,7.7,32,7.6c0,0,0,0,0-0.1c0-0.1,0.1-0.2,0.1-0.3c0,0,0.6-0.6,0.6-0.6l0.3-0.3c0,0,1.4-1.4,1.6-1.5l-1.3-0.4c-0.2,0.2-1.4,1.5-1.4,1.5c-1,1-2,2.2-2.5,2.4c-1.2,0.5-2.5,1.7-3,2.8c0,0-0.2,0.6-0.3,0.9c-0.4-1.1-0.8-1.9-1.5-2.7c-0.7-0.8-1.5-1.4-2.6-1.9c-0.6-0.5-2.4-2.2-3.4-3.1L17.4,4.7z M22.4,32.5c-1.7,0.9-2.7,0.1-2.2-0.8C20.7,32.1,21.5,32.4,22.4,32.5z M19.4,31.2c-1.2,0.3-1.6-0.5-1.3-1.2C18.3,30.3,19.1,31,19.4,31.2z M8.9,10.3c0.1,0.1,0.3,0.2,0.3,0.2c0,0,1.5,1.2,1.7,1.4c0,0.1-0.6,1.7-0.6,1.7c-0.5,1.4-1.1,2.8-1.1,3.9l0,0.2c0,0,0.5,2.5,0.5,2.5l0,0.2c0.3,1.3,0.6,2.8,0.7,3.8c0,0.3,0.1,0.5,0.2,0.5c0.7,0.7,1.9,2.3,3.3,5.1C13.9,30,14,30,14,30c0.1,0.4,0.3,0.7,0.5,0.8c0.3,0.2,0.7,0.2,1.1,0c0.7-0.5,1.2-1.1,1.5-1.9c0.1,0.1,0.4,0.5,0.5,0.6c-1.2,2.1,0.9,2.9,1.7,2.6c-0.4,1.3,1.2,2.3,2.7,1.6c0.2,0.8,0.9,1.1,1.5,1.2c0.6,0.1,1.5,0.2,2.8,0.1c2.1-0.2,4-0.8,4.7-1.2c1.6-0.8,2.5-1.9,3-2.6c0,0,0.1-0.1,0.2-0.2c0.2,0.3,0.3,0.6,0.5,0.8c0.5,0.5,1,0.7,1.4,0.7c0.3-0.1,0.5-0.2,0.6-0.5c0.7-1.7,2.3-3.8,3.5-5.2l0,0c0,0,0.1-0.2,0.1-0.2c0.3-1,1.2-3.5,1.7-4.8l0.4-1c0,0,0.1-0.2,0.1-0.2c0-0.4,0-0.8,0-1.2c0-1.7-0.3-3.4-0.7-4.8c-0.2-0.7-0.5-1.1-0.7-1.6l-0.3-0.5c0.3-0.5,1.4-1.2,2.2-1.7c0,0,0,0,0.1,0l-1-1.1c-0.1,0-0.7,0.5-0.7,0.5c-0.7,0.5-1.5,0.7-1.9,0.5c-0.1,0-0.7-0.4-0.7-0.4c0,0-0.1-0.1-0.1-0.1c0,0-0.2,0-0.2,0c0,0-0.2,0-0.2,0l-0.1,0l0.2,0.2c0.4,0.5,0.6,0.9,0.9,1.5c0,0,0.2,0.3,0.2,0.3c0,0,0.2,0.4,0.2,0.4l0,0.1l0.2,0.6l0,0.1l0.1,0.3l0.5,1.7c0.4,1.7,0.6,3.1,0.6,4.3l0,0c0,0,0,0.1,0,0.1c0,0-0.6,1.6-0.6,1.6c-0.6,1.6-1.3,3.7-1.5,4.5l0,0.1c-1.6,1.6-2.7,3.5-3.1,4.7c-0.1,0.1-0.1,0.2-0.1,0.2c-0.1,0-0.3-0.2-0.4-0.2c-0.4-0.4-0.6-1.1-0.6-1.9c0-0.9,0.4-1.8,1.1-2.3c0.1-0.1,0.1-0.2,0-0.3c-0.2-1.1,0.1-2.7,0.8-3.2l0.2-0.1l-0.2-0.1c-1.9-1.5-2.8-4.2-2.9-6.2l0-0.3l-0.3,0.1c0,0-0.1,0.2-0.1,0.2c-0.1,0.4-0.1,0.8-0.1,1.2c0,1,0.2,2,0.3,2.3c0.3,1.1,0.8,2.2,1.6,3.1c0,0,0,0,0,0c-0.4,0.4-0.5,1.5-0.5,2.4c0,0.3,0,0.5,0,0.7c-0.9,0.8-1.1,1.7-1.2,2.4c0,0,0,0.7,0,0.7c0,0-0.4,0.5-0.4,0.5l-0.1,0.1c-0.8,1.2-1.4,2-2.9,2.7c-1.5,0.8-4.5,1.3-6.5,1.2c-0.7-0.1-0.6-0.7-0.6-0.8c0-0.1,0-0.2,0.1-0.3c0,0,0.1-0.2,0.2-0.2c1.8,0.2,3.6,0,4.3-0.4c0,0,0.3-0.4,0.3-0.4l0.1-0.2l-0.2,0c-1.6,0.4-4.7-0.1-6.3-0.8c-1.8-0.8-2.4-1.5-3.9-3.5L17.4,27c0-0.5-0.2-1.1-0.4-1.6c-0.2-0.4-0.6-0.7-0.7-0.8c0.1-0.3,0.2-0.8,0.2-1.3c0-0.7-0.1-1.3-0.4-1.7c1.1-0.9,1.7-1.8,1.7-2.8c0-0.5-0.3-1.2-0.3-1.2l-0.4-0.2l0,0.3c0.2,1.7-1.4,2.8-2.5,3.6c0,0-0.3,0.2-0.3,0.2l0.2,0.1c0.8,0.5,0.8,2.3,0.7,3.3l0,0.1l0,0.1l0,0c0,0,0.4,0.3,0.4,0.3c0.8,1.1,0.8,2.9-0.2,3.9c-0.2,0.2-0.3,0.2-0.3,0.2c-0.1,0-0.2-0.4-0.3-0.5c0,0-0.3-0.5-0.3-0.5c-0.7-1.5-1.3-2.8-2.8-4.5c0,0,0-0.1,0-0.1c-0.3-2.2-0.6-3.9-1-5.4l-0.2-0.9c0,0,0-0.2,0-0.2c0.1-1.7,0.6-3,1.2-4.5l0.4-1l0.3-0.7c0,0,0.1-0.1,0.1-0.1c0.4-0.5,0.8-1,1.4-1.4l0.3-0.2L14,9.3c0,0-0.7,0.1-1.3,0.4l-0.1,0.1c-0.5,0.2-1,0.4-1.5,0.2c0,0-1.1-0.7-1.2-0.7L8.9,10.3z"/></defs><use xlink:href="#SVGID_1_"  style="overflow:visible;fill:#FFFFFF;"/><clipPath id="SVGID_2_"><use xlink:href="#SVGID_1_"  style="overflow:visible;"/></clipPath></g></g></g></g></g></g></g></svg>