<?xml version="1.0" encoding="utf-8"?>
<!-- Employ Florida svg logo 10-9-2018  -->
<svg version="1.1" id="Layer_1" xmlns="http://www.w3.org/2000/svg" xmlns:xlink="http://www.w3.org/1999/xlink" x="0px" y="0px"
	 viewBox="0 0 552 256" style="enable-background:new 0 0 552 256;" width="552px" height="256px" xml:space="preserve">
<style type="text/css">
	.st0{fill:#F26122;stroke:#F26122;stroke-width:2.3654;stroke-miterlimit:10;}
	.st1{fill:#FDB913;}
</style>
<g>
	<path class="st0" d="M84.3,174.6h41.9V189h-25.9v15.2h16.5v14.5h-16.4V249h-16L84.3,174.6L84.3,174.6z"/>
	<path class="st0" d="M128.5,174.6h15.9V233h21.9v16h-37.8L128.5,174.6L128.5,174.6z"/>
	<path class="st0" d="M160.2,211.8c0-11,3.6-20.1,10.9-27.2c7.3-7.2,15.9-10.7,25.9-10.7c11,0,20.1,3.6,27.4,10.8
		c7.2,7.2,10.8,16.3,10.8,27.3c0,10.9-3.6,20-10.7,27.2c-7.1,7.2-16.1,10.8-27,10.8c-10.8,0-19.8-3.6-26.8-10.8
		C163.7,231.9,160.2,222.8,160.2,211.8z M197.7,188.6c-6.2-0.1-11.3,2-15.1,6.5c-3.8,4.4-5.7,10.1-5.7,17.1c0,6.6,1.9,12.1,5.8,16.4
		s8.8,6.5,14.7,6.5c6.2,0,11.3-2.1,15.1-6.4c3.8-4.3,5.8-9.9,5.8-17c0-6.9-1.9-12.5-5.6-16.7C208.9,190.9,203.9,188.8,197.7,188.6z"
		/>
	<path class="st0" d="M236.7,174.6h24.5c7.4,0,13.3,2,17.7,5.9c4.3,3.9,6.5,9.2,6.5,15.9c0,3.8-1,7.8-3,11.9c-2,4.1-5.6,7.3-11,9.7
		l20.8,31h-18.4l-19.2-28.8h-1.8V249h-16v-74.4H236.7z M252.9,187.9v19.4h3.5c8.4,0,12.6-3.4,12.6-10.3c0-2.8-1.1-5-3.3-6.7
		c-2.2-1.6-5.2-2.5-9.1-2.5h-3.7L252.9,187.9L252.9,187.9z"/>
	<path class="st0" d="M292.2,174.6h16V249h-16V174.6z"/>
	<path class="st0" d="M315.8,174.6h25.4c10.8,0,19.6,3.4,26.2,10.3c6.6,6.8,9.9,15.8,9.9,27s-3.4,20.2-10.2,27
		c-6.8,6.8-15.9,10.1-27.2,10.1h-24L315.8,174.6L315.8,174.6z M331.9,188.6v45.9h6.3c6.6,0,12-1.8,16.2-5.4c4.2-3.6,6.3-9.6,6.3-18
		c0-4.9-1-9.2-3.1-12.9c-2-3.8-5-6.3-8.9-7.6s-7.6-2-11.1-2H331.9z"/>
	<path class="st0" d="M395.9,174.6h12.4l30.3,74.4h-16.1l-6-14.6H388l-5.8,14.6h-16L395.9,174.6z M402.1,199l-8.7,21.9H411
		L402.1,199z"/>
</g>
<g>
	<path class="st0" d="M95.3,100h41.9v14.7h-25.8v15h16.4v14.5h-16.4v15.4h25.8v14.7H95.3V100z"/>
	<path class="st0" d="M145.5,100h20.8l15.2,44.6l15.2-44.6h20.1l10.5,74.4h-16.7l-7.2-52.3l-17.9,52.3h-7.9l-18.3-52.8l-6.8,52.8
		h-16.9L145.5,100z"/>
	<path class="st0" d="M226.9,100h25.4c6.8,0,12.4,2,16.5,6c4.2,4,6.3,9.2,6.3,15.7c0,4.3-1,8.3-3.1,12.2c-2.1,3.8-5.2,6.7-9.3,8.6
		c-4.2,1.9-7.7,2.9-10.7,2.9l-9.3,0.2v28.8h-15.9V100H226.9z M242.6,113.4v19h6.2c2.7,0,5-1,6.9-2.9c1.9-1.9,2.9-4.2,2.9-6.9
		c0-3-1.1-5.4-3.2-7c-2.2-1.7-5.2-2.5-9.2-2.5L242.6,113.4z"/>
	<path class="st0" d="M276.9,100h15.9v58.4h21.9v16h-37.8V100z"/>
	<path class="st0" d="M308.5,137.2c0-11,3.6-20.1,10.9-27.2c7.3-7.2,15.9-10.7,25.9-10.7c11,0,20.1,3.6,27.4,10.8
		c7.2,7.2,10.8,16.3,10.8,27.3c0,10.9-3.6,20-10.7,27.2s-16.1,10.8-27,10.8c-10.8,0-19.8-3.6-26.8-10.8
		C312,157.4,308.5,148.3,308.5,137.2z M346,114.1c-6.2-0.1-11.3,2-15.1,6.5c-3.8,4.4-5.7,10.1-5.7,17.1c0,6.6,1.9,12.1,5.8,16.4
		c3.9,4.3,8.8,6.5,14.7,6.5c6.2,0,11.3-2.1,15.1-6.4c3.8-4.3,5.7-9.9,5.7-17c0-6.9-1.9-12.5-5.6-16.7
		C357.3,116.4,352.3,114.2,346,114.1z"/>
	<path class="st0" d="M371.5,100h17.8l13.7,23.1l13.9-23.1h17.8L411,139.6v34.8h-15.9v-34.8L371.5,100z"/>
</g>
<path class="st1" d="M544.6,250.2c-12.4-136.3-131-243.7-275.5-244C149.9,6.1,48.3,78.7,9.5,180.6l-0.1-0.1
	C53.4,89.7,149.1,26.8,260,27c137.2,0.2,251.1,96.8,272.8,223.2H544.6z"/>
</svg>
