<svg version="1.1" xmlns="http://www.w3.org/2000/svg" xmlns:xlink="http://www.w3.org/1999/xlink" viewBox="0 0 172 172"><g fill="none" fill-rule="nonzero" stroke="none" stroke-width="1" stroke-linecap="butt" stroke-linejoin="miter" stroke-miterlimit="10" stroke-dasharray="" stroke-dashoffset="0" font-family="none" font-weight="none" font-size="none" text-anchor="none" style="mix-blend-mode: normal"><path d="M0,172v-172h172v172z" fill="none"></path><g><path d="M157.66667,86c0,39.57433 -32.09233,71.66667 -71.66667,71.66667c-39.57433,0 -71.66667,-32.09233 -71.66667,-71.66667c0,-39.57433 32.09233,-71.66667 71.66667,-71.66667c39.57433,0 71.66667,32.09233 71.66667,71.66667z" fill="#2196f3"></path><path d="M85.13283,111.60292c-2.60508,0 -4.75867,0.8385 -6.43925,2.54775c-1.68058,1.69492 -2.51908,3.8485 -2.51908,6.46792c0,2.57642 0.82417,4.70492 2.46533,6.38192c1.65192,1.68058 3.80908,2.51908 6.50733,2.51908c2.6875,0 4.84467,-0.8385 6.49658,-2.51908c1.63758,-1.68058 2.46533,-3.80908 2.46533,-6.38192c0,-2.61583 -0.8385,-4.773 -2.51908,-6.46792c-1.66983,-1.68058 -3.87,-2.54775 -6.45717,-2.54775zM104.576,52.2665c-4.35375,-3.79475 -10.45617,-5.68317 -18.32517,-5.68317c-7.79733,0 -13.95708,2.00308 -18.46133,5.99133c-4.26775,3.78042 -6.536,8.97267 -6.8155,15.50867h-0.05733v3.58333h16.125l0.02867,-2.51908c0.07167,-2.95267 0.93883,-5.27825 2.59075,-6.95525c1.63758,-1.69492 3.8485,-2.53342 6.59333,-2.53342c5.79425,0 8.67883,3.12108 8.67883,9.37758c0,2.07117 -0.54467,4.04558 -1.66625,5.90533c-1.10725,1.86333 -3.34683,4.28208 -6.70442,7.26342c-3.36117,2.967 -5.66883,5.99133 -6.93017,9.05508c-1.27208,3.06375 -1.90275,7.47483 -1.90275,12.65275h14.26167l0.22575,-3.66575c0.40492,-3.62633 2.01742,-6.77608 4.84467,-9.47792l4.52217,-4.26775c3.51167,-3.40058 5.99133,-6.49658 7.39242,-9.28083c1.41542,-2.79858 2.1285,-5.76558 2.1285,-8.901c-0.0215,-6.91225 -2.18942,-12.25858 -6.52883,-16.05333z" fill="#e3f2fd"></path></g></g></svg>