<svg id="Layer_1" data-name="Layer 1" xmlns="http://www.w3.org/2000/svg" viewBox="0 0 120.808 97.219"><defs><style>.cls-1{fill:#dfe2e9;opacity:0.15;}.cls-2{opacity:0.3;}.cls-15,.cls-3,.cls-4,.cls-7,.cls-9{fill:none;}.cls-11,.cls-14,.cls-15,.cls-3,.cls-4,.cls-7,.cls-8{stroke:#7f818d;}.cls-15,.cls-3,.cls-4,.cls-9{stroke-linecap:round;stroke-linejoin:round;}.cls-4{stroke-dasharray:3.007 3.007;}.cls-5{opacity:0.2;font-size:16px;font-family:Roboto;}.cls-10,.cls-5{fill:#7f818d;}.cls-16,.cls-6{fill:#e0e6f3;}.cls-11,.cls-14,.cls-7,.cls-8{stroke-miterlimit:10;}.cls-11,.cls-14,.cls-7,.cls-8,.cls-9{stroke-width:1.5px;}.cls-13,.cls-8{fill:#fff;}.cls-9{stroke:#fff;}.cls-10,.cls-12{opacity:0.1;}.cls-11{fill:#2899f7;}.cls-12{fill:#85def9;}.cls-14{fill:#ebf5ff;}.cls-15{stroke-width:1.7px;}.cls-16,.cls-17{opacity:0.7;}.cls-17{fill:#ff8345;}</style></defs><title>solutions</title><path class="cls-1" d="M116.487,79.515c0,27.419-25.537,36.408-52.957,36.408S17.192,101.969,17.192,74.55,55.97,24.9,83.389,24.9,116.487,52.1,116.487,79.515Z" transform="translate(-17.192 -23.781)"/><path class="cls-1" d="M95.945,114.79c-19.184,19.591-38.489-11.732-58.08-30.916S14.52,51.947,33.7,32.356s62.442-2.065,82.033,17.118S115.128,95.2,95.945,114.79Z" transform="translate(-17.192 -23.781)"/><g class="cls-2"><path class="cls-3" d="M74.125,39.881q-.6-.443-1.227-.857" transform="translate(-17.192 -23.781)"/><path class="cls-4" d="M70.316,37.494a32.327,32.327,0,0,0-11.575-3.509c-15.646-1.715-29.525,7.8-31,21.249a22.356,22.356,0,0,0,4.484,15.819" transform="translate(-17.192 -23.781)"/><path class="cls-3" d="M33.158,72.24q.478.573.993,1.124" transform="translate(-17.192 -23.781)"/></g><text class="cls-5" transform="translate(83.329 71.387)">?</text><path class="cls-6" d="M30.808,21.219h45a0,0,0,0,1,0,0v10a0,0,0,0,1,0,0h-45a5,5,0,0,1-5-5v0a5,5,0,0,1,5-5Z"/><path class="cls-7" d="M30.808,21.219h45a0,0,0,0,1,0,0v57a0,0,0,0,1,0,0h-45a5,5,0,0,1-5-5v-47a5,5,0,0,1,5-5Z"/><path class="cls-8" d="M77,65H76v40H48a5,5,0,0,1-5-5V50a5,5,0,0,0,5,5H77a5,5,0,0,1,0,10Z" transform="translate(-17.192 -23.781)"/><rect class="cls-8" x="35.808" y="31.219" width="44" height="50"/><line class="cls-8" x1="31.808" y1="26.219" x2="69.808" y2="26.219"/><rect class="cls-6" x="44.808" y="40.219" width="26" height="12"/><line class="cls-9" x1="99.814" y1="18.781" x2="98.317" y2="19.646"/><circle class="cls-10" cx="89.715" cy="27.895" r="21.557"/><circle class="cls-11" cx="93.71" cy="25.88" r="21.557"/><path class="cls-12" d="M94.169,51.186a21.468,21.468,0,0,1,25.357-21.2,21.542,21.542,0,1,0-13.479,40.444A21.536,21.536,0,0,1,94.169,51.186Z" transform="translate(-17.192 -23.781)"/><circle class="cls-7" cx="93.634" cy="25.767" r="21.557"/><line class="cls-9" x1="93.828" y1="13.451" x2="93.828" y2="15.179"/><line class="cls-9" x1="88.209" y1="15.007" x2="89.074" y2="16.504"/><line class="cls-9" x1="83.814" y1="18.781" x2="85.311" y2="19.646"/><line class="cls-9" x1="99.419" y1="15.007" x2="98.554" y2="16.504"/><path class="cls-13" d="M111.205,43.678a5.5,5.5,0,0,1,3.141,10.011,1.5,1.5,0,0,0-.641,1.229v1.76h-5v-1.76a1.5,1.5,0,0,0-.641-1.229,5.5,5.5,0,0,1,3.141-10.011m0-1.5a7,7,0,0,0-4,12.74v3.26h8v-3.26a7,7,0,0,0-4-12.74Z" transform="translate(-17.192 -23.781)"/><polygon class="cls-13" points="97.012 35.398 91.012 35.398 91.012 37.398 97.012 37.398 97.012 35.398 97.012 35.398"/><circle class="cls-10" cx="21.728" cy="63.469" r="10"/><circle class="cls-14" cx="19.728" cy="61.469" r="10"/><polyline class="cls-15" points="23.728 59.035 18.858 63.904 15.728 60.774"/><circle class="cls-16" cx="17.308" cy="29.719" r="1.5"/><circle class="cls-17" cx="72.308" cy="91.719" r="1.5"/><circle class="cls-17" cx="64.308" cy="6.719" r="1"/><circle class="cls-17" cx="25.308" cy="8.719" r="0.5"/><circle class="cls-16" cx="59.308" cy="12.719" r="0.5"/><circle class="cls-17" cx="3.808" cy="50.219" r="1"/><circle class="cls-16" cx="115.308" cy="9.719" r="1.5"/><circle class="cls-17" cx="120.308" cy="22.719" r="0.5"/><circle class="cls-16" cx="6.308" cy="45.719" r="0.5"/></svg>