<?xml version="1.0" encoding="utf-8"?>
<!-- Generator: Adobe Illustrator 22.1.0, SVG Export Plug-In . SVG Version: 6.00 Build 0)  -->
<svg version="1.1" id="Layer_1" xmlns="http://www.w3.org/2000/svg" xmlns:xlink="http://www.w3.org/1999/xlink" x="0px" y="0px"
	 viewBox="0 0 128.5 97.2" style="enable-background:new 0 0 128.5 97.2;" xml:space="preserve">
<style type="text/css">
	.st0{opacity:0.15;fill:#DFE2E9;enable-background:new    ;}
	.st1{opacity:0.3;}
	.st2{fill:none;stroke:#7F818D;stroke-linecap:round;stroke-linejoin:round;}
	.st3{fill:none;stroke:#7F818D;stroke-linecap:round;stroke-linejoin:round;stroke-dasharray:3.007,3.007;}
	.st4{fill:#FFFFFF;stroke:#7F818D;stroke-width:1.5;stroke-miterlimit:10;}
	.st5{fill:#E0E6F3;}
	.st6{opacity:0.7;fill:#E0E6F3;enable-background:new    ;}
	.st7{opacity:0.7;fill:#FF8345;enable-background:new    ;}
	.st8{opacity:0.1;fill:#7F818D;enable-background:new    ;}
	.st9{fill:#F8FBFF;stroke:#7F818D;stroke-width:1.5;stroke-miterlimit:10;}
	.st10{fill:none;stroke:#7F818D;stroke-width:1.5;stroke-linecap:round;stroke-linejoin:round;}
	.st11{opacity:0.2;fill:#7F818D;enable-background:new    ;}
	.st12{font-family:'Roboto';}
	.st13{font-size:16px;}
	.st14{opacity:0.2;}
	.st15{fill:#FFFFFF;stroke:#7F818D;stroke-linecap:round;stroke-linejoin:round;}
	.st16{fill:#FC4C4C;stroke:#7F818D;stroke-width:1.5;stroke-miterlimit:10;}
	.st17{opacity:0.1;fill:#FCD183;enable-background:new    ;}
	.st18{fill:none;stroke:#7F818D;stroke-width:1.5;stroke-miterlimit:10;}
	.st19{fill:#FFFFFF;}
</style>
<title>request</title>
<path class="st0" d="M110,55.7c0,27.4-25.5,36.4-53,36.4s-46.3-14-46.3-41.4S49.5,1.1,76.9,1.1S110,28.3,110,55.7z"/>
<path class="st0" d="M89.4,91C70.3,110.6,51,79.3,31.4,60.1S8,28.2,27.2,8.6s62.4-2.1,82,17.1S108.6,71.4,89.4,91z"/>
<g class="st1">
	<path class="st2" d="M44.9,86c-0.4,0.2-0.9,0.5-1.3,0.7"/>
	<path class="st3" d="M40.9,88c-3.8,1.5-7.8,2.2-11.9,2.2c-15.7,0-28.5-11-28.5-24.5c0-5.7,2.3-11.1,6.2-15.2"/>
	<path class="st2" d="M7.7,49.4c0.4-0.3,0.7-0.7,1.1-1"/>
</g>
<path class="st4" d="M23.8,70.3c0.4,0.3,1,0.3,1.3,0c4.1-3.6,10.2-3.2,13.8,0.9c3.1,3.5,3.3,8.7,0.4,12.5c-0.3,0.4-0.3,1,0.1,1.3
	l7.2,6.7c0.4,0.4,1,0.3,1.4,0l46.8-50.2c0.4-0.4,0.3-1,0-1.4l-7.2-6.7c-0.4-0.3-1-0.3-1.3,0C82.2,37,76,36.6,72.4,32.5
	c-3.1-3.5-3.3-8.7-0.4-12.5c0.3-0.4,0.3-1-0.1-1.3L64.7,12c-0.4-0.4-1-0.3-1.4,0L16.6,62.2c-0.4,0.4-0.3,1,0,1.4L23.8,70.3z"/>
<rect x="36.1" y="36.2" transform="matrix(0.682 -0.7314 0.7314 0.682 -20.2143 57.2402)" class="st5" width="39.2" height="31.4"/>
<circle class="st6" cx="23" cy="32.7" r="1.5"/>
<circle class="st7" cx="62.5" cy="88.2" r="1.5"/>
<circle class="st7" cx="76" cy="12.7" r="1"/>
<circle class="st6" cx="9.5" cy="62.2" r="0.5"/>
<circle class="st7" cx="47" cy="17.7" r="0.5"/>
<circle class="st6" cx="90" cy="53.7" r="0.5"/>
<circle class="st6" cx="67" cy="84.7" r="0.5"/>
<path class="st8" d="M12.9,40.2h20.3c1.2,0,2.3,1,2.3,2.3V56c0,1.2-1,2.3-2.3,2.3H12.9c-1.2,0-2.3-1-2.3-2.3V42.4
	C10.6,41.2,11.6,40.2,12.9,40.2z"/>
<path class="st9" d="M10.9,38.2h20.3c1.2,0,2.3,1,2.3,2.3V54c0,1.2-1,2.3-2.3,2.3H10.9c-1.2,0-2.3-1-2.3-2.3V40.4
	C8.6,39.2,9.6,38.2,10.9,38.2z"/>
<path class="st10" d="M11.4,42l8.7,7.4c0.5,0.5,1.4,0.5,1.9,0c0,0,0,0,0,0l8.7-7.4"/>
<circle class="st7" cx="2.5" cy="45.2" r="1"/>
<text transform="matrix(1 0 0 1 34.022 28.387)" class="st11 st12 st13">?</text>
<g class="st14">
	<path class="st2" d="M78.3,68.7c0-3.1,2.5-5.7,5.6-5.8s5.7,2.5,5.8,5.6c0,0.1,0,0.1,0,0.2"/>
	<path class="st15" d="M88.5,68.2v4.5c0,1.9-0.6,2.5-2.5,2.5"/>
	<path class="st15" d="M87.6,68.2h0.6c1,0,1.9,0.8,1.9,1.9l0,0c0,1-0.8,1.9-1.9,1.9h-0.6l0,0V68.2L87.6,68.2z"/>
	<path class="st15" d="M80.2,71.9h-0.6c-1,0-1.9-0.8-1.9-1.9l0,0c0-1,0.8-1.9,1.9-1.9h0.6l0,0V71.9L80.2,71.9z"/>
	<path class="st15" d="M85,74.5L85,74.5c0.7,0,1.2,0.6,1.2,1.2l0,0c0,0.7-0.6,1.2-1.2,1.2l0,0c-0.7,0-1.2-0.6-1.2-1.2l0,0
		C83.8,75,84.3,74.5,85,74.5z"/>
</g>
<circle class="st8" cx="97.4" cy="35.9" r="21.6"/>
<circle class="st16" cx="101.4" cy="33.9" r="21.6"/>
<path class="st17" d="M84.7,35.4c0-11.9,9.5-21.5,21.4-21.6c1.3,0,2.7,0.1,4,0.4c-10.6-5.4-23.6-1.1-28.9,9.5
	c-5.4,10.6-1.1,23.6,9.5,28.9c1.9,0.9,3.9,1.6,5.9,2C89.3,51,84.7,43.5,84.7,35.4z"/>
<circle class="st18" cx="101.3" cy="33.8" r="21.6"/>
<circle class="st6" cx="125" cy="15.7" r="1.5"/>
<circle class="st7" cx="128" cy="28.7" r="0.5"/>
<path class="st19" d="M93.9,28.8c0-1,0.3-2,0.9-2.9c0.7-1,1.6-1.9,2.7-2.4c1.3-0.7,2.7-1,4.1-1c1.3,0,2.6,0.2,3.8,0.8
	c1,0.5,1.9,1.2,2.6,2.2c0.6,0.9,0.9,1.9,0.9,3c0,0.8-0.2,1.5-0.5,2.2c-0.3,0.6-0.7,1.2-1.2,1.7c-0.5,0.5-1.3,1.2-2.6,2.3
	c-0.3,0.3-0.6,0.5-0.8,0.8c-0.2,0.2-0.3,0.4-0.5,0.6c-0.1,0.2-0.2,0.4-0.2,0.6c-0.1,0.2-0.1,0.5-0.2,1c-0.1,0.9-0.9,1.6-1.8,1.6
	c0,0,0,0,0,0c-0.5,0-1-0.2-1.3-0.5c-0.4-0.4-0.6-1-0.5-1.5c0-1.4,0.5-2.8,1.4-3.8c0.6-0.6,1.1-1.1,1.7-1.7c0.6-0.6,1.1-1,1.4-1.3
	c0.3-0.3,0.5-0.6,0.7-1c0.2-0.3,0.3-0.7,0.3-1.1c0-0.8-0.3-1.5-0.9-2c-0.6-0.6-1.5-0.9-2.3-0.8c-0.9-0.1-1.8,0.2-2.4,0.8
	c-0.6,0.7-1.1,1.6-1.3,2.5c-0.3,1.1-1,1.7-1.9,1.7c-0.5,0-1-0.2-1.4-0.6C94.1,29.7,93.9,29.3,93.9,28.8z M101.2,45.2
	c-0.6,0-1.2-0.2-1.6-0.6c-0.5-0.4-0.7-1-0.7-1.7c0-0.6,0.2-1.2,0.7-1.6c0.4-0.4,1-0.7,1.6-0.6c1.2,0,2.2,0.9,2.2,2.2c0,0,0,0,0,0.1
	c0,0.6-0.2,1.2-0.7,1.7C102.4,45,101.8,45.2,101.2,45.2L101.2,45.2z"/>
</svg>
